<svg width="53" height="48" viewBox="0 0 53 48" fill="none" xmlns="http://www.w3.org/2000/svg">
<g clip-path="url(#clip0_22_103)">
<path d="M6.90983 0.180525C4.59799 1.5532 0.0431999 6.7858 0 8.15804V10.4295C0 13.3088 2.69136 15.8394 5.13496 15.8394C8.0691 15.8394 10.5138 13.4077 10.514 10.5215C10.514 13.4077 12.8749 15.8394 15.8092 15.8394C18.7438 15.8394 21.0289 13.4077 21.0289 10.5215C21.0289 13.4077 23.5392 15.8394 26.4736 15.8394H26.5267C29.4613 15.8394 31.9716 13.4077 31.9716 10.5215C31.9716 13.4077 34.2569 15.8394 37.191 15.8394C40.1254 15.8394 42.4863 13.4077 42.4863 10.5215C42.4863 13.4077 44.9314 15.8394 47.8653 15.8394C50.3089 15.8394 53.0003 13.3092 53.0003 10.4295V8.15804C52.9571 6.78558 48.4023 1.55277 46.0909 0.180525C38.9054 -0.0717629 33.924 -0.115395 26.4999 -0.114315C19.076 -0.113667 8.9547 0.00232503 6.9094 0.180525H6.90983ZM20.9917 14.4834C20.7112 14.9725 20.3636 15.4199 19.9592 15.8129C18.8516 16.8959 17.3333 17.5672 15.6595 17.5672C14.0489 17.5687 12.5019 16.9385 11.3508 15.812C10.9495 15.4189 10.6445 14.9985 10.3652 14.5091L10.3639 14.5099C10.0848 15.0003 9.69601 15.4204 9.29382 15.8139C8.14226 16.9396 6.59543 17.5693 4.98506 17.5679C4.78331 17.5679 4.57336 17.5121 4.40359 17.4538C4.16771 19.9102 4.06814 22.2576 4.03293 23.9692L4.0325 23.9789C4.02818 24.8481 4.02386 25.5629 4.01954 26.5558C4.0649 31.7096 3.50913 43.2599 6.29186 46.098C10.6041 47.1034 18.539 47.5614 26.4997 47.5642H26.501C34.4615 47.5614 42.3964 47.1034 46.7086 46.098C49.4914 43.2597 48.9356 31.7094 48.981 26.5556C48.9762 25.5629 48.9723 24.8481 48.968 23.9787L48.9674 23.969C48.9324 22.257 48.8328 19.9097 48.5969 17.4534C48.4271 17.5117 48.2174 17.5674 48.0154 17.5674C46.4051 17.5689 44.8582 16.9392 43.7067 15.8135C43.3045 15.42 42.9157 15 42.6364 14.5095L42.6351 14.5086C42.3556 14.9981 42.0508 15.4187 41.6495 15.8116C40.4984 16.938 38.9515 17.5681 37.341 17.5666C35.6674 17.5666 34.1489 16.8948 33.0413 15.812C32.6369 15.4191 32.2893 14.9716 32.0088 14.4825C31.7312 14.9711 31.3869 15.4185 30.9858 15.812C29.8344 16.9383 28.2873 17.5683 26.6766 17.5668C26.6183 17.5668 26.56 17.5642 26.5017 17.5625H26.5001C26.4418 17.5642 26.3835 17.5668 26.3245 17.5668C24.7139 17.5684 23.1668 16.9385 22.0153 15.8122C21.6142 15.4187 21.2699 14.9713 20.9924 14.4827L20.9917 14.4834ZM16.5667 20.2052L16.5663 20.2074H16.5696C18.322 20.211 19.8787 20.2074 21.8075 22.3125C23.3256 22.1533 24.9119 22.0738 26.4995 22.0762H26.5008C28.0884 22.074 29.6747 22.1533 31.193 22.3125C33.1218 20.2072 34.6785 20.2108 36.4309 20.2074H36.434L36.4335 20.2052C37.2615 20.2052 40.5734 20.2052 42.8811 26.6867L45.3599 35.5783C47.1968 42.1931 44.7718 42.3549 41.7469 42.3607C37.261 42.1938 34.7772 38.9361 34.7772 35.6788C32.2941 36.0857 29.3973 36.2892 26.5006 36.2894H26.4993C23.6023 36.2894 20.7055 36.0857 18.2226 35.6788C18.2226 38.9361 15.7386 42.1938 11.2529 42.3607C8.22808 42.3549 5.80326 42.1933 7.64013 35.5783L10.1196 26.6869C12.4273 20.2054 15.7393 20.2054 16.5672 20.2054L16.5667 20.2052ZM26.4995 25.2989V25.3002C26.4952 25.3045 21.7771 29.6375 20.9289 31.1786L24.0185 31.0549V33.7493C24.0185 33.8754 25.2584 33.824 26.4995 33.7665H26.5008C27.7415 33.824 28.9815 33.8754 28.9815 33.7493V31.0549L32.0712 31.1786C31.2228 29.6375 26.5006 25.3002 26.5006 25.3002V25.2989L26.4999 25.2993L26.4995 25.2989Z" fill="black"/>
</g>
<defs>
<clipPath id="clip0_22_103">
<rect width="53" height="48" fill="white"/>
</clipPath>
</defs>
</svg>
